<svg width="600" height="392" xmlns="http://www.w3.org/2000/svg"> <rect width="100%" height="100%" fill="#FEFEFE" />
<line x1="70" y1="252" x2="530" y2="252" stroke="#9f9f9f" stroke-width="1" />
<rect x="70" y="87" width="460" height="165" fill="#FEFEFE" />
<text text-anchor="middle" x="300.0" y="20" font-family="'Helvetica Neue', Arial, sans-serif" font-weight="bold" font-size="22" fill="#000000">Popularity of the first name Alix</text>
<text text-anchor="middle" x="300.0" y="42" font-family="'Helvetica Neue', Arial, sans-serif" font-size="14" fill="#000000">correlates with</text>
<text text-anchor="middle" x="300.0" y="68" font-family="'Helvetica Neue', Arial, sans-serif" font-weight="bold" font-size="22" fill="#ba0f27">Carjackings in the US</text>
<text text-anchor="start" x="23" y="297.3333333333333" font-family="'Helvetica Neue', Arial, sans-serif" font-size="14" fill="#9f9f9f">Babies of all sexes born in the US named Alix &#183; Source: US Social Security</text>
<text text-anchor="start" x="23" y="313.3333333333333" font-family="'Helvetica Neue', Arial, sans-serif" font-size="14" fill="#9f9f9f">Administration</text>
<text text-anchor="start" x="23" y="336.66666666666663" font-family="'Helvetica Neue', Arial, sans-serif" font-size="14" fill="#9f9f9f">Rate of nonfatal carjacking victimization per 1,000 persons age 16 or older</text>
<text text-anchor="start" x="23" y="352.66666666666663" font-family="'Helvetica Neue', Arial, sans-serif" font-size="14" fill="#9f9f9f">(3-year moving averages) &#183; Source: Bureau of Justice Statistics</text>
<text text-anchor="start" x="23" y="375.99999999999994" font-family="'Helvetica Neue', Arial, sans-serif" font-size="14" fill="#9f9f9f">1995-2021, r=0.968, r&#178;=0.937, p&lt;0.01  &#183;  tylervigen.com/spurious/correlation/5912</text>
<polyline points="5,292.66666666666663 20,292.66666666666663" style="fill:none;stroke:#000000;stroke-width:2" stroke-dasharray="3,1" />
<polygon points="3.0200000000000005,292.66666666666663 5,290.6866666666666 6.9799999999999995,292.66666666666663 5,294.64666666666665" stroke="#F7F7F7" stroke-width="1.65" fill="#F7F7F7"  />
<polygon points="3.0200000000000005,292.66666666666663 5,290.6866666666666 6.9799999999999995,292.66666666666663 5,294.64666666666665" stroke="#000000" stroke-width="1.65" fill="#000000"  />
<polyline points="5,331.99999999999994 20,331.99999999999994" style="fill:none;stroke:#ba0f27;stroke-width:2" />
<circle cx="5" cy="331.99999999999994" r="1.65" stroke="#F7F7F7" stroke-width="1.65" fill="#F7F7F7" />
<circle cx="5" cy="331.99999999999994" r="1.65" stroke="#ba0f27" stroke-width="1.65" fill="#ba0f27"  />
<text x="5" y="174.5" transform="rotate(270 5 169.5)" text-anchor="middle" fill="#000000" font-family="'Helvetica Neue', Arial, sans-serif" font-size="14" dominant-baseline="central">Babies born</text>
<text x="169.5" y="-389" transform="rotate(90 100 100)" text-anchor="middle" fill="#ba0f27" font-family="'Helvetica Neue', Arial, sans-serif" font-size="14" dominant-baseline="central">Carjackings</text>
<line x1="71" y1="93.65" x2="528" y2="93.65" stroke="#F3F3F3" stroke-width="1" fill="#FEFEFE" />
<text text-anchor="end" x="62" y="98.31666666666668" font-family="'Helvetica Neue', Arial, sans-serif" font-size="12" fill="#000000">171</text>
<text text-anchor="start" x="538" y="98.31666666666668" font-family="'Helvetica Neue', Arial, sans-serif" font-size="12" fill="#ba0f27">0.53</text>
<line x1="71" y1="131.575" x2="528" y2="131.575" stroke="#F3F3F3" stroke-width="1" fill="#FEFEFE" />
<text text-anchor="end" x="62" y="136.24166666666665" font-family="'Helvetica Neue', Arial, sans-serif" font-size="12">136</text>
<text text-anchor="start" x="538" y="136.24166666666665" font-family="'Helvetica Neue', Arial, sans-serif" font-size="12" fill="#ba0f27">0.42</text>
<line x1="71" y1="169.5" x2="528" y2="169.5" stroke="#F3F3F3" stroke-width="1" fill="#FEFEFE" />
<text text-anchor="end" x="62" y="174.16666666666666" font-family="'Helvetica Neue', Arial, sans-serif" font-size="12">102</text>
<text text-anchor="start" x="538" y="174.16666666666666" font-family="'Helvetica Neue', Arial, sans-serif" font-size="12" fill="#ba0f27">0.31</text>
<line x1="71" y1="207.425" x2="528" y2="207.425" stroke="#F3F3F3" stroke-width="1" fill="#FEFEFE" />
<text text-anchor="end" x="62" y="212.09166666666667" font-family="'Helvetica Neue', Arial, sans-serif" font-size="12">67</text>
<text text-anchor="start" x="538" y="212.09166666666667" font-family="'Helvetica Neue', Arial, sans-serif" font-size="12" fill="#ba0f27">0.2</text>
<line x1="71" y1="245.35" x2="528" y2="245.35" stroke="#F3F3F3" stroke-width="1" fill="#FEFEFE" />
<text text-anchor="end" x="62" y="250.01666666666665" font-family="'Helvetica Neue', Arial, sans-serif" font-size="12">32</text>
<text text-anchor="start" x="538" y="250.01666666666665" font-family="'Helvetica Neue', Arial, sans-serif" font-size="12" fill="#ba0f27">0.09</text>
<polyline points="76.65,252 76.65,258" style="fill:none;stroke:#000000;stroke-width:1" />
<polyline points="162.55384615384617,252 162.55384615384617,258" style="fill:none;stroke:#000000;stroke-width:1" />
<polyline points="248.4576923076923,252 248.4576923076923,258" style="fill:none;stroke:#000000;stroke-width:1" />
<polyline points="334.36153846153843,252 334.36153846153843,258" style="fill:none;stroke:#000000;stroke-width:1" />
<polyline points="420.2653846153846,252 420.2653846153846,258" style="fill:none;stroke:#000000;stroke-width:1" />
<polyline points="506.1692307692307,252 506.1692307692307,258" style="fill:none;stroke:#000000;stroke-width:1" />
<text text-anchor="middle" x="76.65" y="273" font-weight="bold" font-family="'Helvetica Neue', Arial, sans-serif" font-size="14">1995</text>
<text text-anchor="middle" x="162.55384615384617" y="273" font-weight="bold" font-family="'Helvetica Neue', Arial, sans-serif" font-size="14">2000</text>
<text text-anchor="middle" x="248.4576923076923" y="273" font-weight="bold" font-family="'Helvetica Neue', Arial, sans-serif" font-size="14">2005</text>
<text text-anchor="middle" x="334.36153846153843" y="273" font-weight="bold" font-family="'Helvetica Neue', Arial, sans-serif" font-size="14">2010</text>
<text text-anchor="middle" x="420.2653846153846" y="273" font-weight="bold" font-family="'Helvetica Neue', Arial, sans-serif" font-size="14">2015</text>
<text text-anchor="middle" x="506.1692307692307" y="273" font-weight="bold" font-family="'Helvetica Neue', Arial, sans-serif" font-size="14">2020</text>
<polyline points="76.65,93.65 93.83076923076923,110.88863636363638" style="fill:none;stroke:#ba0f27;stroke-width:2"  />
<polyline points="93.83076923076923,110.88863636363638 111.01153846153846,138.47045454545454" style="fill:none;stroke:#ba0f27;stroke-width:2"  />
<polyline points="111.01153846153846,138.47045454545454 128.19230769230768,172.94772727272726" style="fill:none;stroke:#ba0f27;stroke-width:2"  />
<polyline points="128.19230769230768,172.94772727272726 145.37307692307692,155.70909090909092" style="fill:none;stroke:#ba0f27;stroke-width:2"  />
<polyline points="145.37307692307692,155.70909090909092 162.55384615384617,169.5" style="fill:none;stroke:#ba0f27;stroke-width:2"  />
<polyline points="162.55384615384617,169.5 179.73461538461538,169.5" style="fill:none;stroke:#ba0f27;stroke-width:2"  />
<polyline points="179.73461538461538,169.5 196.9153846153846,210.87272727272727" style="fill:none;stroke:#ba0f27;stroke-width:2"  />
<polyline points="196.9153846153846,210.87272727272727 214.09615384615384,197.08181818181816" style="fill:none;stroke:#ba0f27;stroke-width:2"  />
<polyline points="214.09615384615384,197.08181818181816 231.27692307692305,210.87272727272727" style="fill:none;stroke:#ba0f27;stroke-width:2"  />
<polyline points="231.27692307692305,210.87272727272727 248.4576923076923,200.52954545454546" style="fill:none;stroke:#ba0f27;stroke-width:2"  />
<polyline points="248.4576923076923,200.52954545454546 265.63846153846157,212.59659090909088" style="fill:none;stroke:#ba0f27;stroke-width:2"  />
<polyline points="265.63846153846157,212.59659090909088 282.8192307692308,212.59659090909088" style="fill:none;stroke:#ba0f27;stroke-width:2"  />
<polyline points="282.8192307692308,212.59659090909088 300.0,212.59659090909088" style="fill:none;stroke:#ba0f27;stroke-width:2"  />
<polyline points="300.0,212.59659090909088 317.1807692307692,224.66363636363633" style="fill:none;stroke:#ba0f27;stroke-width:2"  />
<polyline points="317.1807692307692,224.66363636363633 334.36153846153843,231.55909090909088" style="fill:none;stroke:#ba0f27;stroke-width:2"  />
<polyline points="334.36153846153843,231.55909090909088 351.54230769230765,245.35" style="fill:none;stroke:#ba0f27;stroke-width:2"  />
<polyline points="351.54230769230765,245.35 368.72307692307686,245.35" style="fill:none;stroke:#ba0f27;stroke-width:2"  />
<polyline points="368.72307692307686,245.35 385.9038461538461,235.00681818181818" style="fill:none;stroke:#ba0f27;stroke-width:2"  />
<polyline points="385.9038461538461,235.00681818181818 403.0846153846154,224.66363636363633" style="fill:none;stroke:#ba0f27;stroke-width:2"  />
<polyline points="403.0846153846154,224.66363636363633 420.2653846153846,228.11136363636362" style="fill:none;stroke:#ba0f27;stroke-width:2"  />
<polyline points="420.2653846153846,228.11136363636362 437.44615384615383,238.45454545454544" style="fill:none;stroke:#ba0f27;stroke-width:2"  />
<polyline points="437.44615384615383,238.45454545454544 454.62692307692305,245.35" style="fill:none;stroke:#ba0f27;stroke-width:2"  />
<polyline points="454.62692307692305,245.35 471.80769230769226,241.9022727272727" style="fill:none;stroke:#ba0f27;stroke-width:2"  />
<polyline points="471.80769230769226,241.9022727272727 488.9884615384615,241.9022727272727" style="fill:none;stroke:#ba0f27;stroke-width:2"  />
<polyline points="488.9884615384615,241.9022727272727 506.1692307692307,241.9022727272727" style="fill:none;stroke:#ba0f27;stroke-width:2"  />
<polyline points="506.1692307692307,241.9022727272727 523.3499999999999,235.00681818181818" style="fill:none;stroke:#ba0f27;stroke-width:2"  />
<circle cx="76.65" cy="93.65" r="1.65" stroke="#F7F7F7" stroke-width="1.65" fill="#F7F7F7" />
<circle cx="76.65" cy="93.65" r="1.65" stroke="#ba0f27" stroke-width="1.65" fill="#ba0f27"  />
<circle cx="93.83076923076923" cy="110.88863636363638" r="1.65" stroke="#F7F7F7" stroke-width="1.65" fill="#F7F7F7" />
<circle cx="93.83076923076923" cy="110.88863636363638" r="1.65" stroke="#ba0f27" stroke-width="1.65" fill="#ba0f27"  />
<circle cx="111.01153846153846" cy="138.47045454545454" r="1.65" stroke="#F7F7F7" stroke-width="1.65" fill="#F7F7F7" />
<circle cx="111.01153846153846" cy="138.47045454545454" r="1.65" stroke="#ba0f27" stroke-width="1.65" fill="#ba0f27"  />
<circle cx="128.19230769230768" cy="172.94772727272726" r="1.65" stroke="#F7F7F7" stroke-width="1.65" fill="#F7F7F7" />
<circle cx="128.19230769230768" cy="172.94772727272726" r="1.65" stroke="#ba0f27" stroke-width="1.65" fill="#ba0f27"  />
<circle cx="145.37307692307692" cy="155.70909090909092" r="1.65" stroke="#F7F7F7" stroke-width="1.65" fill="#F7F7F7" />
<circle cx="145.37307692307692" cy="155.70909090909092" r="1.65" stroke="#ba0f27" stroke-width="1.65" fill="#ba0f27"  />
<circle cx="162.55384615384617" cy="169.5" r="1.65" stroke="#F7F7F7" stroke-width="1.65" fill="#F7F7F7" />
<circle cx="162.55384615384617" cy="169.5" r="1.65" stroke="#ba0f27" stroke-width="1.65" fill="#ba0f27"  />
<circle cx="179.73461538461538" cy="169.5" r="1.65" stroke="#F7F7F7" stroke-width="1.65" fill="#F7F7F7" />
<circle cx="179.73461538461538" cy="169.5" r="1.65" stroke="#ba0f27" stroke-width="1.65" fill="#ba0f27"  />
<circle cx="196.9153846153846" cy="210.87272727272727" r="1.65" stroke="#F7F7F7" stroke-width="1.65" fill="#F7F7F7" />
<circle cx="196.9153846153846" cy="210.87272727272727" r="1.65" stroke="#ba0f27" stroke-width="1.65" fill="#ba0f27"  />
<circle cx="214.09615384615384" cy="197.08181818181816" r="1.65" stroke="#F7F7F7" stroke-width="1.65" fill="#F7F7F7" />
<circle cx="214.09615384615384" cy="197.08181818181816" r="1.65" stroke="#ba0f27" stroke-width="1.65" fill="#ba0f27"  />
<circle cx="231.27692307692305" cy="210.87272727272727" r="1.65" stroke="#F7F7F7" stroke-width="1.65" fill="#F7F7F7" />
<circle cx="231.27692307692305" cy="210.87272727272727" r="1.65" stroke="#ba0f27" stroke-width="1.65" fill="#ba0f27"  />
<circle cx="248.4576923076923" cy="200.52954545454546" r="1.65" stroke="#F7F7F7" stroke-width="1.65" fill="#F7F7F7" />
<circle cx="248.4576923076923" cy="200.52954545454546" r="1.65" stroke="#ba0f27" stroke-width="1.65" fill="#ba0f27"  />
<circle cx="265.63846153846157" cy="212.59659090909088" r="1.65" stroke="#F7F7F7" stroke-width="1.65" fill="#F7F7F7" />
<circle cx="265.63846153846157" cy="212.59659090909088" r="1.65" stroke="#ba0f27" stroke-width="1.65" fill="#ba0f27"  />
<circle cx="282.8192307692308" cy="212.59659090909088" r="1.65" stroke="#F7F7F7" stroke-width="1.65" fill="#F7F7F7" />
<circle cx="282.8192307692308" cy="212.59659090909088" r="1.65" stroke="#ba0f27" stroke-width="1.65" fill="#ba0f27"  />
<circle cx="300.0" cy="212.59659090909088" r="1.65" stroke="#F7F7F7" stroke-width="1.65" fill="#F7F7F7" />
<circle cx="300.0" cy="212.59659090909088" r="1.65" stroke="#ba0f27" stroke-width="1.65" fill="#ba0f27"  />
<circle cx="317.1807692307692" cy="224.66363636363633" r="1.65" stroke="#F7F7F7" stroke-width="1.65" fill="#F7F7F7" />
<circle cx="317.1807692307692" cy="224.66363636363633" r="1.65" stroke="#ba0f27" stroke-width="1.65" fill="#ba0f27"  />
<circle cx="334.36153846153843" cy="231.55909090909088" r="1.65" stroke="#F7F7F7" stroke-width="1.65" fill="#F7F7F7" />
<circle cx="334.36153846153843" cy="231.55909090909088" r="1.65" stroke="#ba0f27" stroke-width="1.65" fill="#ba0f27"  />
<circle cx="351.54230769230765" cy="245.35" r="1.65" stroke="#F7F7F7" stroke-width="1.65" fill="#F7F7F7" />
<circle cx="351.54230769230765" cy="245.35" r="1.65" stroke="#ba0f27" stroke-width="1.65" fill="#ba0f27"  />
<circle cx="368.72307692307686" cy="245.35" r="1.65" stroke="#F7F7F7" stroke-width="1.65" fill="#F7F7F7" />
<circle cx="368.72307692307686" cy="245.35" r="1.65" stroke="#ba0f27" stroke-width="1.65" fill="#ba0f27"  />
<circle cx="385.9038461538461" cy="235.00681818181818" r="1.65" stroke="#F7F7F7" stroke-width="1.65" fill="#F7F7F7" />
<circle cx="385.9038461538461" cy="235.00681818181818" r="1.65" stroke="#ba0f27" stroke-width="1.65" fill="#ba0f27"  />
<circle cx="403.0846153846154" cy="224.66363636363633" r="1.65" stroke="#F7F7F7" stroke-width="1.65" fill="#F7F7F7" />
<circle cx="403.0846153846154" cy="224.66363636363633" r="1.65" stroke="#ba0f27" stroke-width="1.65" fill="#ba0f27"  />
<circle cx="420.2653846153846" cy="228.11136363636362" r="1.65" stroke="#F7F7F7" stroke-width="1.65" fill="#F7F7F7" />
<circle cx="420.2653846153846" cy="228.11136363636362" r="1.65" stroke="#ba0f27" stroke-width="1.65" fill="#ba0f27"  />
<circle cx="437.44615384615383" cy="238.45454545454544" r="1.65" stroke="#F7F7F7" stroke-width="1.65" fill="#F7F7F7" />
<circle cx="437.44615384615383" cy="238.45454545454544" r="1.65" stroke="#ba0f27" stroke-width="1.65" fill="#ba0f27"  />
<circle cx="454.62692307692305" cy="245.35" r="1.65" stroke="#F7F7F7" stroke-width="1.65" fill="#F7F7F7" />
<circle cx="454.62692307692305" cy="245.35" r="1.65" stroke="#ba0f27" stroke-width="1.65" fill="#ba0f27"  />
<circle cx="471.80769230769226" cy="241.9022727272727" r="1.65" stroke="#F7F7F7" stroke-width="1.65" fill="#F7F7F7" />
<circle cx="471.80769230769226" cy="241.9022727272727" r="1.65" stroke="#ba0f27" stroke-width="1.65" fill="#ba0f27"  />
<circle cx="488.9884615384615" cy="241.9022727272727" r="1.65" stroke="#F7F7F7" stroke-width="1.65" fill="#F7F7F7" />
<circle cx="488.9884615384615" cy="241.9022727272727" r="1.65" stroke="#ba0f27" stroke-width="1.65" fill="#ba0f27"  />
<circle cx="506.1692307692307" cy="241.9022727272727" r="1.65" stroke="#F7F7F7" stroke-width="1.65" fill="#F7F7F7" />
<circle cx="506.1692307692307" cy="241.9022727272727" r="1.65" stroke="#ba0f27" stroke-width="1.65" fill="#ba0f27"  />
<circle cx="523.3499999999999" cy="235.00681818181818" r="1.65" stroke="#F7F7F7" stroke-width="1.65" fill="#F7F7F7" />
<circle cx="523.3499999999999" cy="235.00681818181818" r="1.65" stroke="#ba0f27" stroke-width="1.65" fill="#ba0f27"  />
<polyline points="76.65,93.65 93.83076923076923,137.3046762589928" style="fill:none;stroke:#000000;stroke-width:2" stroke-dasharray="3,1"  />
<polyline points="93.83076923076923,137.3046762589928 111.01153846153846,132.93920863309353" style="fill:none;stroke:#000000;stroke-width:2" stroke-dasharray="3,1"  />
<polyline points="111.01153846153846,132.93920863309353 128.19230769230768,162.40611510791368" style="fill:none;stroke:#000000;stroke-width:2" stroke-dasharray="3,1"  />
<polyline points="128.19230769230768,162.40611510791368 145.37307692307692,158.04064748201438" style="fill:none;stroke:#000000;stroke-width:2" stroke-dasharray="3,1"  />
<polyline points="145.37307692307692,158.04064748201438 162.55384615384617,156.94928057553958" style="fill:none;stroke:#000000;stroke-width:2" stroke-dasharray="3,1"  />
<polyline points="162.55384615384617,156.94928057553958 179.73461538461538,185.3248201438849" style="fill:none;stroke:#000000;stroke-width:2" stroke-dasharray="3,1"  />
<polyline points="179.73461538461538,185.3248201438849 196.9153846153846,200.60395683453237" style="fill:none;stroke:#000000;stroke-width:2" stroke-dasharray="3,1"  />
<polyline points="196.9153846153846,200.60395683453237 214.09615384615384,175.50251798561152" style="fill:none;stroke:#000000;stroke-width:2" stroke-dasharray="3,1"  />
<polyline points="214.09615384615384,175.50251798561152 231.27692307692305,185.3248201438849" style="fill:none;stroke:#000000;stroke-width:2" stroke-dasharray="3,1"  />
<polyline points="231.27692307692305,185.3248201438849 248.4576923076923,198.42122302158273" style="fill:none;stroke:#000000;stroke-width:2" stroke-dasharray="3,1"  />
<polyline points="248.4576923076923,198.42122302158273 265.63846153846157,204.96942446043167" style="fill:none;stroke:#000000;stroke-width:2" stroke-dasharray="3,1"  />
<polyline points="265.63846153846157,204.96942446043167 282.8192307692308,202.78669064748203" style="fill:none;stroke:#000000;stroke-width:2" stroke-dasharray="3,1"  />
<polyline points="282.8192307692308,202.78669064748203 300.0,207.1521582733813" style="fill:none;stroke:#000000;stroke-width:2" stroke-dasharray="3,1"  />
<polyline points="300.0,207.1521582733813 317.1807692307692,222.43129496402878" style="fill:none;stroke:#000000;stroke-width:2" stroke-dasharray="3,1"  />
<polyline points="317.1807692307692,222.43129496402878 334.36153846153843,224.61402877697842" style="fill:none;stroke:#000000;stroke-width:2" stroke-dasharray="3,1"  />
<polyline points="334.36153846153843,224.61402877697842 351.54230769230765,220.24856115107914" style="fill:none;stroke:#000000;stroke-width:2" stroke-dasharray="3,1"  />
<polyline points="351.54230769230765,220.24856115107914 368.72307692307686,235.52769784172662" style="fill:none;stroke:#000000;stroke-width:2" stroke-dasharray="3,1"  />
<polyline points="368.72307692307686,235.52769784172662 385.9038461538461,227.88812949640288" style="fill:none;stroke:#000000;stroke-width:2" stroke-dasharray="3,1"  />
<polyline points="385.9038461538461,227.88812949640288 403.0846153846154,225.70539568345325" style="fill:none;stroke:#000000;stroke-width:2" stroke-dasharray="3,1"  />
<polyline points="403.0846153846154,225.70539568345325 420.2653846153846,228.97949640287771" style="fill:none;stroke:#000000;stroke-width:2" stroke-dasharray="3,1"  />
<polyline points="420.2653846153846,228.97949640287771 437.44615384615383,232.25359712230215" style="fill:none;stroke:#000000;stroke-width:2" stroke-dasharray="3,1"  />
<polyline points="437.44615384615383,232.25359712230215 454.62692307692305,236.61906474820145" style="fill:none;stroke:#000000;stroke-width:2" stroke-dasharray="3,1"  />
<polyline points="454.62692307692305,236.61906474820145 471.80769230769226,238.8017985611511" style="fill:none;stroke:#000000;stroke-width:2" stroke-dasharray="3,1"  />
<polyline points="471.80769230769226,238.8017985611511 488.9884615384615,234.43633093525182" style="fill:none;stroke:#000000;stroke-width:2" stroke-dasharray="3,1"  />
<polyline points="488.9884615384615,234.43633093525182 506.1692307692307,245.35" style="fill:none;stroke:#000000;stroke-width:2" stroke-dasharray="3,1"  />
<polyline points="506.1692307692307,245.35 523.3499999999999,235.52769784172662" style="fill:none;stroke:#000000;stroke-width:2" stroke-dasharray="3,1"  />
<polygon points="74.67,93.65 76.65,91.67 78.63000000000001,93.65 76.65,95.63000000000001" stroke="#F7F7F7" stroke-width="1.65" fill="#F7F7F7"  />
<polygon points="74.67,93.65 76.65,91.67 78.63000000000001,93.65 76.65,95.63000000000001" stroke="#000000" stroke-width="1.65" fill="#000000"  />
<polygon points="91.85076923076923,137.3046762589928 93.83076923076923,135.3246762589928 95.81076923076924,137.3046762589928 93.83076923076923,139.2846762589928" stroke="#F7F7F7" stroke-width="1.65" fill="#F7F7F7"  />
<polygon points="91.85076923076923,137.3046762589928 93.83076923076923,135.3246762589928 95.81076923076924,137.3046762589928 93.83076923076923,139.2846762589928" stroke="#000000" stroke-width="1.65" fill="#000000"  />
<polygon points="109.03153846153846,132.93920863309353 111.01153846153846,130.95920863309354 112.99153846153847,132.93920863309353 111.01153846153846,134.91920863309352" stroke="#F7F7F7" stroke-width="1.65" fill="#F7F7F7"  />
<polygon points="109.03153846153846,132.93920863309353 111.01153846153846,130.95920863309354 112.99153846153847,132.93920863309353 111.01153846153846,134.91920863309352" stroke="#000000" stroke-width="1.65" fill="#000000"  />
<polygon points="126.21230769230768,162.40611510791368 128.19230769230768,160.4261151079137 130.17230769230767,162.40611510791368 128.19230769230768,164.38611510791367" stroke="#F7F7F7" stroke-width="1.65" fill="#F7F7F7"  />
<polygon points="126.21230769230768,162.40611510791368 128.19230769230768,160.4261151079137 130.17230769230767,162.40611510791368 128.19230769230768,164.38611510791367" stroke="#000000" stroke-width="1.65" fill="#000000"  />
<polygon points="143.39307692307693,158.04064748201438 145.37307692307692,156.0606474820144 147.3530769230769,158.04064748201438 145.37307692307692,160.02064748201437" stroke="#F7F7F7" stroke-width="1.65" fill="#F7F7F7"  />
<polygon points="143.39307692307693,158.04064748201438 145.37307692307692,156.0606474820144 147.3530769230769,158.04064748201438 145.37307692307692,160.02064748201437" stroke="#000000" stroke-width="1.65" fill="#000000"  />
<polygon points="160.57384615384618,156.94928057553958 162.55384615384617,154.96928057553959 164.53384615384616,156.94928057553958 162.55384615384617,158.92928057553956" stroke="#F7F7F7" stroke-width="1.65" fill="#F7F7F7"  />
<polygon points="160.57384615384618,156.94928057553958 162.55384615384617,154.96928057553959 164.53384615384616,156.94928057553958 162.55384615384617,158.92928057553956" stroke="#000000" stroke-width="1.65" fill="#000000"  />
<polygon points="177.7546153846154,185.3248201438849 179.73461538461538,183.3448201438849 181.71461538461537,185.3248201438849 179.73461538461538,187.30482014388488" stroke="#F7F7F7" stroke-width="1.65" fill="#F7F7F7"  />
<polygon points="177.7546153846154,185.3248201438849 179.73461538461538,183.3448201438849 181.71461538461537,185.3248201438849 179.73461538461538,187.30482014388488" stroke="#000000" stroke-width="1.65" fill="#000000"  />
<polygon points="194.9353846153846,200.60395683453237 196.9153846153846,198.62395683453238 198.8953846153846,200.60395683453237 196.9153846153846,202.58395683453236" stroke="#F7F7F7" stroke-width="1.65" fill="#F7F7F7"  />
<polygon points="194.9353846153846,200.60395683453237 196.9153846153846,198.62395683453238 198.8953846153846,200.60395683453237 196.9153846153846,202.58395683453236" stroke="#000000" stroke-width="1.65" fill="#000000"  />
<polygon points="212.11615384615385,175.50251798561152 214.09615384615384,173.52251798561153 216.07615384615383,175.50251798561152 214.09615384615384,177.4825179856115" stroke="#F7F7F7" stroke-width="1.65" fill="#F7F7F7"  />
<polygon points="212.11615384615385,175.50251798561152 214.09615384615384,173.52251798561153 216.07615384615383,175.50251798561152 214.09615384615384,177.4825179856115" stroke="#000000" stroke-width="1.65" fill="#000000"  />
<polygon points="229.29692307692306,185.3248201438849 231.27692307692305,183.3448201438849 233.25692307692304,185.3248201438849 231.27692307692305,187.30482014388488" stroke="#F7F7F7" stroke-width="1.65" fill="#F7F7F7"  />
<polygon points="229.29692307692306,185.3248201438849 231.27692307692305,183.3448201438849 233.25692307692304,185.3248201438849 231.27692307692305,187.30482014388488" stroke="#000000" stroke-width="1.65" fill="#000000"  />
<polygon points="246.4776923076923,198.42122302158273 248.4576923076923,196.44122302158274 250.4376923076923,198.42122302158273 248.4576923076923,200.40122302158272" stroke="#F7F7F7" stroke-width="1.65" fill="#F7F7F7"  />
<polygon points="246.4776923076923,198.42122302158273 248.4576923076923,196.44122302158274 250.4376923076923,198.42122302158273 248.4576923076923,200.40122302158272" stroke="#000000" stroke-width="1.65" fill="#000000"  />
<polygon points="263.65846153846155,204.96942446043167 265.63846153846157,202.98942446043168 267.6184615384616,204.96942446043167 265.63846153846157,206.94942446043166" stroke="#F7F7F7" stroke-width="1.65" fill="#F7F7F7"  />
<polygon points="263.65846153846155,204.96942446043167 265.63846153846157,202.98942446043168 267.6184615384616,204.96942446043167 265.63846153846157,206.94942446043166" stroke="#000000" stroke-width="1.65" fill="#000000"  />
<polygon points="280.83923076923077,202.78669064748203 282.8192307692308,200.80669064748204 284.7992307692308,202.78669064748203 282.8192307692308,204.76669064748202" stroke="#F7F7F7" stroke-width="1.65" fill="#F7F7F7"  />
<polygon points="280.83923076923077,202.78669064748203 282.8192307692308,200.80669064748204 284.7992307692308,202.78669064748203 282.8192307692308,204.76669064748202" stroke="#000000" stroke-width="1.65" fill="#000000"  />
<polygon points="298.02,207.1521582733813 300.0,205.1721582733813 301.98,207.1521582733813 300.0,209.1321582733813" stroke="#F7F7F7" stroke-width="1.65" fill="#F7F7F7"  />
<polygon points="298.02,207.1521582733813 300.0,205.1721582733813 301.98,207.1521582733813 300.0,209.1321582733813" stroke="#000000" stroke-width="1.65" fill="#000000"  />
<polygon points="315.2007692307692,222.43129496402878 317.1807692307692,220.4512949640288 319.16076923076923,222.43129496402878 317.1807692307692,224.41129496402877" stroke="#F7F7F7" stroke-width="1.65" fill="#F7F7F7"  />
<polygon points="315.2007692307692,222.43129496402878 317.1807692307692,220.4512949640288 319.16076923076923,222.43129496402878 317.1807692307692,224.41129496402877" stroke="#000000" stroke-width="1.65" fill="#000000"  />
<polygon points="332.3815384615384,224.61402877697842 334.36153846153843,222.63402877697843 336.34153846153845,224.61402877697842 334.36153846153843,226.5940287769784" stroke="#F7F7F7" stroke-width="1.65" fill="#F7F7F7"  />
<polygon points="332.3815384615384,224.61402877697842 334.36153846153843,222.63402877697843 336.34153846153845,224.61402877697842 334.36153846153843,226.5940287769784" stroke="#000000" stroke-width="1.65" fill="#000000"  />
<polygon points="349.5623076923076,220.24856115107914 351.54230769230765,218.26856115107915 353.52230769230766,220.24856115107914 351.54230769230765,222.22856115107913" stroke="#F7F7F7" stroke-width="1.65" fill="#F7F7F7"  />
<polygon points="349.5623076923076,220.24856115107914 351.54230769230765,218.26856115107915 353.52230769230766,220.24856115107914 351.54230769230765,222.22856115107913" stroke="#000000" stroke-width="1.65" fill="#000000"  />
<polygon points="366.74307692307684,235.52769784172662 368.72307692307686,233.54769784172663 370.7030769230769,235.52769784172662 368.72307692307686,237.5076978417266" stroke="#F7F7F7" stroke-width="1.65" fill="#F7F7F7"  />
<polygon points="366.74307692307684,235.52769784172662 368.72307692307686,233.54769784172663 370.7030769230769,235.52769784172662 368.72307692307686,237.5076978417266" stroke="#000000" stroke-width="1.65" fill="#000000"  />
<polygon points="383.92384615384606,227.88812949640288 385.9038461538461,225.9081294964029 387.8838461538461,227.88812949640288 385.9038461538461,229.86812949640287" stroke="#F7F7F7" stroke-width="1.65" fill="#F7F7F7"  />
<polygon points="383.92384615384606,227.88812949640288 385.9038461538461,225.9081294964029 387.8838461538461,227.88812949640288 385.9038461538461,229.86812949640287" stroke="#000000" stroke-width="1.65" fill="#000000"  />
<polygon points="401.1046153846154,225.70539568345325 403.0846153846154,223.72539568345326 405.0646153846154,225.70539568345325 403.0846153846154,227.68539568345324" stroke="#F7F7F7" stroke-width="1.65" fill="#F7F7F7"  />
<polygon points="401.1046153846154,225.70539568345325 403.0846153846154,223.72539568345326 405.0646153846154,225.70539568345325 403.0846153846154,227.68539568345324" stroke="#000000" stroke-width="1.65" fill="#000000"  />
<polygon points="418.2853846153846,228.97949640287771 420.2653846153846,226.99949640287772 422.24538461538464,228.97949640287771 420.2653846153846,230.9594964028777" stroke="#F7F7F7" stroke-width="1.65" fill="#F7F7F7"  />
<polygon points="418.2853846153846,228.97949640287771 420.2653846153846,226.99949640287772 422.24538461538464,228.97949640287771 420.2653846153846,230.9594964028777" stroke="#000000" stroke-width="1.65" fill="#000000"  />
<polygon points="435.4661538461538,232.25359712230215 437.44615384615383,230.27359712230216 439.42615384615385,232.25359712230215 437.44615384615383,234.23359712230214" stroke="#F7F7F7" stroke-width="1.65" fill="#F7F7F7"  />
<polygon points="435.4661538461538,232.25359712230215 437.44615384615383,230.27359712230216 439.42615384615385,232.25359712230215 437.44615384615383,234.23359712230214" stroke="#000000" stroke-width="1.65" fill="#000000"  />
<polygon points="452.64692307692303,236.61906474820145 454.62692307692305,234.63906474820146 456.60692307692307,236.61906474820145 454.62692307692305,238.59906474820144" stroke="#F7F7F7" stroke-width="1.65" fill="#F7F7F7"  />
<polygon points="452.64692307692303,236.61906474820145 454.62692307692305,234.63906474820146 456.60692307692307,236.61906474820145 454.62692307692305,238.59906474820144" stroke="#000000" stroke-width="1.65" fill="#000000"  />
<polygon points="469.82769230769225,238.8017985611511 471.80769230769226,236.8217985611511 473.7876923076923,238.8017985611511 471.80769230769226,240.78179856115108" stroke="#F7F7F7" stroke-width="1.65" fill="#F7F7F7"  />
<polygon points="469.82769230769225,238.8017985611511 471.80769230769226,236.8217985611511 473.7876923076923,238.8017985611511 471.80769230769226,240.78179856115108" stroke="#000000" stroke-width="1.65" fill="#000000"  />
<polygon points="487.00846153846146,234.43633093525182 488.9884615384615,232.45633093525183 490.9684615384615,234.43633093525182 488.9884615384615,236.4163309352518" stroke="#F7F7F7" stroke-width="1.65" fill="#F7F7F7"  />
<polygon points="487.00846153846146,234.43633093525182 488.9884615384615,232.45633093525183 490.9684615384615,234.43633093525182 488.9884615384615,236.4163309352518" stroke="#000000" stroke-width="1.65" fill="#000000"  />
<polygon points="504.1892307692307,245.35 506.1692307692307,243.37 508.1492307692307,245.35 506.1692307692307,247.32999999999998" stroke="#F7F7F7" stroke-width="1.65" fill="#F7F7F7"  />
<polygon points="504.1892307692307,245.35 506.1692307692307,243.37 508.1492307692307,245.35 506.1692307692307,247.32999999999998" stroke="#000000" stroke-width="1.65" fill="#000000"  />
<polygon points="521.3699999999999,235.52769784172662 523.3499999999999,233.54769784172663 525.3299999999999,235.52769784172662 523.3499999999999,237.5076978417266" stroke="#F7F7F7" stroke-width="1.65" fill="#F7F7F7"  />
<polygon points="521.3699999999999,235.52769784172662 523.3499999999999,233.54769784172663 525.3299999999999,235.52769784172662 523.3499999999999,237.5076978417266" stroke="#000000" stroke-width="1.65" fill="#000000"  />
</svg>